<mxfile host="app.diagrams.net" modified="2023-12-10T11:28:58.821Z" agent="Mozilla/5.0 (Macintosh; Intel Mac OS X 10_15_7) AppleWebKit/537.36 (KHTML, like Gecko) Chrome/119.0.0.0 Safari/537.36" version="22.1.7" etag="x6jxXWjnAQjsYvrapKtv" type="github">
  <diagram name="Page-1" id="7PWV_ERbkC8a1aegsN7r">
    <mxGraphModel>
      <root>
        <mxCell id="0" />
        <mxCell id="1" parent="0" />
      </root>
    </mxGraphModel>
  </diagram>
</mxfile>
